<svg xmlns="http://www.w3.org/2000/svg" viewBox="0 0 24 24" width="24" height="24" role="img" aria-labelledby="title">
  <title id="title">Instagram</title>
  <g transform="translate(0 -0.55) translate(12 12) scale(0.72) translate(-12 -12)">
    <path fill="#fff" d="M12 2.2c3.2 0 3.6 0 4.8.07 1.2.06 2 .24 2.7.5.7.28 1.3.65 1.9 1.25.6.6 1 1.2 1.24 1.9.27.7.45 1.5.5 2.7.07 1.2.08 1.6.08 4.8s0 3.6-.07 4.8c-.06 1.2-.24 2-.5 2.7-.28.7-.65 1.3-1.25 1.9-.6.6-1.2 1-1.9 1.24-.7.27-1.5.45-2.7.5-1.2.07-1.6.08-4.8.08s-3.6 0-4.8-.07c-1.2-.06-2-.24-2.7-.5a5 5 0 0 1-1.9-1.25 5 5 0 0 1-1.24-1.9c-.27-.7-.45-1.5-.5-2.7C2.2 15.6 2.2 15.2 2.2 12s0-3.6.07-4.8c.06-1.2.24-2 .5-2.7.28-.7.65-1.3 1.25-1.9a5 5 0 0 1 1.9-1.24c.7-.27 1.5-.45 2.7-.5C8.4 2.2 8.8 2.2 12 2.2Zm0 1.8c-3.15 0-3.52 0-4.76.07-.98.05-1.5.2-1.86.34-.47.18-.8.4-1.15.75-.36.36-.57.68-.75 1.15-.14.36-.3.88-.34 1.86C3.02 8.48 3 8.85 3 12s0 3.52.14 4.76c.05.98.2 1.5.34 1.86.18.47.4.8.75 1.15.36.36.68.57 1.15.75.36.14.88.3 1.86.34C8.48 20.98 8.85 21 12 21s3.52 0 4.76-.14c.98-.05 1.5-.2 1.86-.34.47-.18.8-.4 1.15-.75.36-.36.57-.68.75-1.15.14-.36.3-.88.34-1.86.14-1.24.14-1.6.14-4.76s0-3.52-.14-4.76c-.05-.98-.2-1.5-.34-1.86a3.2 3.2 0 0 0-.75-1.15 3.2 3.2 0 0 0-1.15-.75c-.36-.14-.88-.3-1.86-.34C15.52 4 15.15 4 12 4Zm0 3.5a4.5 4.5 0 1 1 0 9 4.5 4.5 0 0 1 0-9Zm0 1.8a2.7 2.7 0 1 0 0 5.4 2.7 2.7 0 0 0 0-5.4Zm4.7-2a1.05 1.05 0 1 1 0 2.1 1.05 1.05 0 0 1 0-2.1Z"/>
  </g>
</svg>
